<svg id="Layer_1" data-name="Layer 1" xmlns="http://www.w3.org/2000/svg" viewBox="0 0 1000 560"><defs><style>.cls-1{fill:#fff;}</style></defs><title>1Artboard 1</title><path class="cls-1" d="M293.1,330.78c0,15.34,1.59,20.92,18.93,20.92,2.19,0,3.59,2.79,3.59,6.37,0,4.19-1.79,9.36-4.78,9.36h-2c-6.78,0-19.33-.2-24.71-4.78-1.4-1-11-8.57-11-31.48l-.4-42.64h-.2c-.4,0-1,.2-1.59.2h-1.79c-9.36,0-10,0-10-6.58,0-5.38,0-13.35,3.79-13.35,0,0,4.78.2,8.37.2h1.79V249.08s0-4,10.56-4.78c9.16,0,9.16,3.79,9.16,4.78V268.8h5.38c2,0,3.79-.2,5.38-.2h8c7.57,0,7.77,1.39,7.77,9.76,0,5.38-1.4,10.16-3.79,10.16,0,0-9-.2-16.34-.2H292.9Z"/><path class="cls-1" d="M370,266.21c27.1,0,48.82,20.33,48.82,49.22,0,35.67-21.72,54.4-49,54.4-26.9,0-48.62-19.13-48.62-54.4C321.13,286.54,343.05,266.21,370,266.21Zm-.6,85.09c19.53,0,29.89-12.56,29.89-35.27,0-20.32-14.35-31.68-29.89-31.68s-28.5,14.15-28.5,31.68C340.86,336.55,352,351.3,369.36,351.3Z"/><path class="cls-1" d="M488.67,272.79a22.87,22.87,0,0,0,3.59.2c9.76,0,20.13-8.77,20.13-8.77s.6,6.58.6,9.17c0,6.18-1,15.94-8,20.92a69.55,69.55,0,0,1,1,11.56c0,21.12-17.53,38.26-39.25,38.26a39.32,39.32,0,0,1-10-1c-1,1.2-2.39,2.79-3,3.59-1,1-.4,0-1.2,1.2,1.79.6,6.38,1.39,18.93,1.39,21.92,0,42,6.58,42,34.08V385c-1.2,23.11-24.91,34.27-49,34.27-23.11,0-49.22-11.36-49.22-31.48,0-11.76,8.57-23.71,16.94-27.7a54.56,54.56,0,0,1-6.78-9l17.34-14.75c-8.57-7.77-15.14-18.33-15.14-30.49,0-20.92,17.34-39.65,39.06-39.65A39.93,39.93,0,0,1,488.67,272.79Zm-53.4,111.39h.2c4.38,10.36,18.13,15.14,31.08,15.14,13.15,0,25.71-5,26.1-14.35v-.8c0-11.76-5-15.94-20.72-15.94h-3c-1,0-2.19.2-3.39.2-1.79.2-5,.2-6.78.2a48.39,48.39,0,0,1-16.34-2.39c-5.58,6.38-7.37,12.16-7.37,15.74A9,9,0,0,0,435.26,384.18Zm32.48-57.79c12,0,21.72-9.37,21.72-20.92,0-11.36-9.77-22.32-21.72-22.32-11.76,0-21.52,11-21.52,22.32C446.23,317,456,326.39,467.74,326.39Z"/><path class="cls-1" d="M566,322.41c-13.95,0-25.3-.6-25.3-.6,1,21.52,14.15,29.69,28.69,29.69,6.58,0,13.35-1.59,20.52-4.19.2,0,.8-.2,1-.2,4.19,0,7.77,8.57,7.77,13,0,8.17-23.11,9.77-34.27,9.77-33.87,0-44.23-26.3-44.23-55.4S533.69,266,560.79,266c30.69,0,39.26,12.16,39.26,36.86q0,5.68-.6,12.55C599,321,582.11,322.41,566,322.41Zm-25.1-17.14c1,0,2.39.2,4.58.2,5.38.2,13.15.2,20.52.2,7.77,0,14.75,0,14.75.6,0-16.14-.2-23.71-19.53-23.71C546.44,282.55,541.46,294.31,540.87,305.27Z"/><path class="cls-1" d="M643.28,330.78c0,15.34,1.59,20.92,18.93,20.92,2.19,0,3.59,2.79,3.59,6.37,0,4.19-1.79,9.36-4.78,9.36h-2c-6.78,0-19.33-.2-24.71-4.78-1.4-1-11-8.57-11-31.48l-.4-42.64h-.2c-.4,0-1,.2-1.59.2h-1.79c-9.36,0-10,0-10-6.58,0-5.38,0-13.35,3.79-13.35,0,0,4.78.2,8.37.2h1.79V249.08s0-4,10.56-4.78c9.16,0,9.16,3.79,9.16,4.78V268.8h5.38c2,0,3.79-.2,5.38-.2h8c7.57,0,7.77,1.39,7.77,9.76,0,5.38-1.4,10.16-3.79,10.16,0,0-9-.2-16.34-.2h-6.38Z"/><path class="cls-1" d="M701.26,366.24A25.45,25.45,0,0,1,691.5,368a33,33,0,0,1-10.36-1.79V229s-1-5.18,10.36-5.78c8.17.2,9.36,3.19,9.36,5.18l.4,44.43a39,39,0,0,1,22.31-6.38c22.92,0,41.45,18.73,42.44,42v57.79A39.46,39.46,0,0,1,754.86,368a17.64,17.64,0,0,1-9-2.19V308.66c-2.19-11.56-14.15-22.12-28.89-22.12a33.49,33.49,0,0,0-15.74,4Z"/><path class="cls-1" d="M822.74,322.41c-13.95,0-25.3-.6-25.3-.6,1,21.52,14.15,29.69,28.69,29.69,6.58,0,13.35-1.59,20.52-4.19.2,0,.8-.2,1-.2,4.19,0,7.77,8.57,7.77,13,0,8.17-23.11,9.77-34.27,9.77-33.87,0-44.23-26.3-44.23-55.4S790.46,266,817.56,266c30.69,0,39.26,12.16,39.26,36.86q0,5.68-.6,12.55C855.82,321,838.88,322.41,822.74,322.41Zm-25.1-17.14c1,0,2.39.2,4.58.2,5.38.2,13.15.2,20.52.2,7.77,0,14.75,0,14.75.6,0-16.14-.2-23.71-19.53-23.71C803.22,282.55,798.24,294.31,797.64,305.27Z"/><path class="cls-1" d="M889.55,300.69v62c-2.39,4.58-6,6-9.36,6-5.38,0-10.36-3.39-10.36-5.18V273.19s1.2-5.38,11-5.38c7.57,0,8.77,4.58,8.77,4.58v6.77c4.78-6.77,12.35-13,25.51-13,7.17,0,23.11,5.78,23.11,12.55,0,5-5.18,13.15-8.57,12.75,0,0-8.37-5.18-15.74-5.18C905.49,286.34,893.74,291.92,889.55,300.69Z"/><path class="cls-1" d="M293.38,123.29H263.26a1.64,1.64,0,0,1-1.26-2.7,9.45,9.45,0,0,0,2.22-6.56A9.62,9.62,0,0,0,255,105a9.51,9.51,0,0,0-7.6,15.6,1.65,1.65,0,0,1-1.25,2.73H195.91c.68.55.55.42,1,.73l22.28,16.71c.78-7.44,5.08-12.79,10.6-12.79,6.12,0,10.73,6.55,10.73,15.24a18.62,18.62,0,0,1-3.29,11.09l13.26,10,.82-2.18h0a2.47,2.47,0,0,1,4.74-.37l3.36,9.25,4.4,3.3h13.14a1.65,1.65,0,0,0,1.57-2.17L270,145.88a1.65,1.65,0,0,1,1.57-2.17h21.81a1.65,1.65,0,0,0,1.65-1.65V124.94A1.65,1.65,0,0,0,293.38,123.29Z"/><path class="cls-1" d="M192.39,152.39l8.51,6.74q.71,0,1.42.07a19.68,19.68,0,0,1,15,30.13h59.79s-2.19-1.76-2.65-2.11l-41.75-31.36a1.65,1.65,0,0,1,0-2.63c2.25-1.81,3.8-5.62,3.8-10.06,0-6.21-3-11.24-6.73-11.24S223,137,223,143.17a16.85,16.85,0,0,0,1.18,6.34l-29.73-22.29a1.65,1.65,0,0,0-2.65,1.32l-.07,22.55A1.66,1.66,0,0,0,192.39,152.39Z"/><polygon class="cls-1" points="233.23 223.73 246.17 258.19 248.91 223.73 233.23 223.73"/><path class="cls-1" d="M273.59,193.33H212.31a1.64,1.64,0,0,1-1.13-2.84,15.69,15.69,0,0,0,5.14-12.19,15.74,15.74,0,0,0-31.46.55A15.69,15.69,0,0,0,190,190.49a1.64,1.64,0,0,1-1.13,2.84H120.32L152.26,218h0c0-12.13,6.37-21.64,14.53-21.64s14.53,9.48,14.53,21.58c0,7.25-2.35,13.83-6.16,17.76l22.68,17.61L199,249s0-.07.06-.11l.49-1.94,1-3.75a1.63,1.63,0,0,1,3.08,0L212.86,265l4.25,3.3H243.3a1.65,1.65,0,0,0,1.57-2.16l-16.61-44.22a1.65,1.65,0,0,1,1.57-2.16h43.75a1.65,1.65,0,0,0,1.65-1.65V195A1.65,1.65,0,0,0,273.59,193.33Z"/><path class="cls-1" d="M115.06,227.7l7.56,6a24.77,24.77,0,0,1,10.89-2.51,25.5,25.5,0,0,1,2.75.15,25,25,0,0,1,22,21.75,25.48,25.48,0,0,1,.08,5.24,24.78,24.78,0,0,1-4.38,12h59.31l-42.87-33.26a1.63,1.63,0,0,1,.08-2.66c4-2.49,6.86-8.91,6.86-16.46,0-9.71-4.72-17.58-10.53-17.58s-10.53,7.87-10.53,17.58a28.46,28.46,0,0,0,.43,4.95,1.64,1.64,0,0,1-2.63,1.56l-36.9-28.51a1.65,1.65,0,0,0-2.66,1.3l-.07,29.16A1.65,1.65,0,0,0,115.06,227.7Z"/><polygon class="cls-1" points="188.78 356.83 188.59 308.89 171.5 308.89 188.78 356.83"/><path class="cls-1" d="M212.79,274.32h-64a1.64,1.64,0,0,1-1.12-2.85,20.84,20.84,0,0,0,6.76-15.75,20.92,20.92,0,0,0-41.84.36,20.84,20.84,0,0,0,6.76,15.39,1.64,1.64,0,0,1-1.11,2.85H54A1.65,1.65,0,0,0,52.36,276v27.26A1.65,1.65,0,0,0,54,304.89h45.3a1.65,1.65,0,0,1,1.6,2.08l-16.19,60.7a1.65,1.65,0,0,0,1.6,2.08h36.16a1.65,1.65,0,0,0,1.62-1.33l7.4-36.9a1.65,1.65,0,0,1,3.19-.2l12.57,37.31a1.65,1.65,0,0,0,1.57,1.13h38a1.65,1.65,0,0,0,1.56-2.21L166.6,307.1a1.65,1.65,0,0,1,1.56-2.21h44.64a1.65,1.65,0,0,0,1.65-1.65V276A1.65,1.65,0,0,0,212.79,274.32Z"/><path class="cls-1" d="M352.88,250.29v1.19c0,1.44-1.11,2.21-3.21,2.21h-27c-2.1,0-3.21-.76-3.21-2.21v-55c0-1.44,1.11-2.21,3.21-2.21H325c2.1,0,3.33.76,3.33,2.21v51.58h21.36C351.77,248.09,352.88,248.94,352.88,250.29Z"/><path class="cls-1" d="M382.5,193.62h1c13.08,0,20.24,4.07,20.24,12.56v35.63c0,8.48-7.16,12.56-20.24,12.56h-1c-13.09,0-20.25-4.07-20.25-12.56V206.18C362.25,197.61,369.41,193.62,382.5,193.62Zm.49,55.23c8.27,0,11.85-2.38,11.85-8.57V207.7c0-6.19-3.58-8.57-11.85-8.57s-11.85,2.37-11.85,8.57v32.58C371.14,246.48,374.72,248.85,383,248.85Z"/><path class="cls-1" d="M459.52,226.11v15.7c0,8.65-7.16,12.56-20.24,12.56h-1c-13.08,0-20.25-3.82-20.25-12.56V206.18c0-8.31,7.16-12.56,20.25-12.56h1c13.08,0,20.24,4.24,20.24,12.56v5.77c0,1.44-1.11,2.21-3.21,2.21H454c-2.1,0-3.33-.76-3.33-2.21V207.7c0-6.19-3.58-8.57-11.85-8.57s-11.85,2.37-11.85,8.57v32.58c0,6.19,3.58,8.57,11.85,8.57s11.85-2.38,11.85-8.57V229.34H441.5c-2.1,0-3.21-.85-3.21-2.29v-.93c0-1.36,1.11-2.21,3.21-2.21h14.81C458.41,223.91,459.52,224.76,459.52,226.11Z"/><path class="cls-1" d="M512,253.69h-2.59c-1.85,0-3.09-.59-3.46-2L502.23,239H481l-3.7,12.64c-.37,1.44-1.48,2-3.46,2h-2.1c-2.22,0-3.33-.85-3-2.46l17-55c.37-1.36,1.6-2,3.58-2h4.69c2,0,3.21.59,3.58,2l17.28,55C515.31,252.84,514.2,253.69,512,253.69Zm-11.36-20-9-30.88-9,30.88Z"/><path class="cls-1" d="M530.74,253.69h-1.85c-2.1,0-3.21-.76-3.21-2.21v-55c0-1.44,1.11-2.21,3.21-2.21H532c1.85,0,3.09.59,3.58,1.78L560,239.35V196.51c0-1.44,1.11-2.21,3.21-2.21h1.85c2.1,0,3.21.76,3.21,2.21v55c0,1.44-1.11,2.21-3.21,2.21h-2.59q-2.78,0-3.7-1.78l-24.81-44.12v43.69C533.95,252.92,532.84,253.69,530.74,253.69Z"/></svg>