<?xml version="1.0" encoding="utf-8"?>
<!-- Generator: Adobe Illustrator 21.0.2, SVG Export Plug-In . SVG Version: 6.00 Build 0)  -->
<svg version="1.1" id="Objects" xmlns="http://www.w3.org/2000/svg" xmlns:xlink="http://www.w3.org/1999/xlink" x="0px" y="0px"
	 viewBox="0 0 39.7 39.1" style="enable-background:new 0 0 39.7 39.1;" xml:space="preserve">
<style type="text/css">
	.st0{fill:#FFFFFF;}
	.st1{fill:#231F20;}
</style>
<g>
	<g>
		<polygon class="st0" points="38,37.5 33.9,37.1 29.9,37.7 25.8,37.7 21.8,37.6 17.8,37.6 13.8,37.3 9.7,37.5 5.7,37.5 1.6,37.5 
			1.6,33.5 1.8,29.5 2.1,25.6 1.9,21.6 1.7,17.6 1.6,13.7 1.4,9.7 1.9,5.8 1.7,1.8 5.7,1.7 9.7,1.6 13.8,2 17.8,2.2 21.8,1.6 
			25.8,2 29.8,2 33.9,1.9 38.2,1.5 37.8,5.8 37.7,9.7 37.9,13.7 37.7,17.6 38.3,21.6 37.9,25.5 37.8,29.5 37.4,33.5 		"/>
	</g>
	<g>
		<path class="st1" d="M25.8,39.1L21.8,39l-4,0.1l-4-0.3l-3.9,0.1l-4.1,0.1l-5.5,0l-0.1-5.5l0.6-7.9l-0.4-7.8L0,9.7l0.5-4L0.2,0.5
			l5.4-0.2l4.1-0.1l4.1,0.4l3.8,0.2l4.1-0.5l4.1,0.4l8-0.1L39.7,0l-0.5,5.9l-0.1,3.8l0.2,4l-0.3,3.9l0.6,4l-0.4,4.1l-0.1,4l-0.4,3.8
			l0.8,5.7l-5.7-0.6l-4,0.6L25.8,39.1z M21.8,36.1l4.1,0.2l3.9,0l4.1-0.6l2.5,0.3L36,33.5l0.4-4.1l0.1-4l0.3-3.8l-0.6-3.9l0.3-4
			l-0.2-3.9l0.1-4l0.2-2.6L34,3.3l-8.2,0.2l-3.9-0.4l-4,0.5l-4.1-0.2L9.7,3L3.2,3.2l0.2,2.6l-0.5,4l0.7,15.8l-0.3,4.1L3,33.5l0,2.6
			l2.7,0l4-0.1l4.1-0.1l4,0.3L21.8,36.1z"/>
	</g>
	<path d="M25.1,20.4l-9,4.9v-1.4l7.6-4.1v0l-7.6-4.1v-1.4l9,4.9V20.4z"/>
</g>
</svg>
