<?xml version="1.0" encoding="utf-8"?>
<!-- Generator: Adobe Illustrator 21.0.2, SVG Export Plug-In . SVG Version: 6.00 Build 0)  -->
<svg version="1.1" id="Objects" xmlns="http://www.w3.org/2000/svg" xmlns:xlink="http://www.w3.org/1999/xlink" x="0px" y="0px"
	 viewBox="0 0 800 800" style="enable-background:new 0 0 800 800;" xml:space="preserve">
<style type="text/css">
	.st0{fill:#FFFFFF;}
	.st1{fill:#231F20;}
</style>
<g>
	<g>
		<g>
			<polygon class="st0" points="379.1,128.9 374.7,129 370.7,128.7 366.7,128.8 362.7,128.9 358.7,128.4 354.6,128.6 350.6,128.6 
				346.6,128.7 342.6,128.5 342.6,124.6 342.3,120.7 342.3,116.7 342.5,112.7 343,108.8 342.7,104.8 342.6,100.9 342.6,96.9 
				342.4,92.8 346.6,92.8 350.6,92.5 354.6,92.8 358.6,92.6 362.7,92.9 366.7,93.1 370.7,92.6 374.7,93.4 378.6,93.1 378.5,96.9 
				379,100.9 379,104.8 378.6,108.8 378.4,112.7 378.8,116.7 378.5,120.6 378.5,124.6 			"/>
		</g>
		<g>
			<path class="st1" d="M374.7,130.4l-4-0.3l-8.1,0.2l-4-0.5l-3.9,0.2l-8.1,0.1l-5.5-0.2l0.1-5.3l-0.3-4l0-4l0.2-4l0.5-3.9l-0.3-3.8
				l-0.1-8l-0.3-5.5l5.6-0.1l4-0.2l4,0.2l4-0.2l4.1,0.3l3.9,0.2l4.1-0.6l4.1,0.8l5.3-0.4l-0.2,5.3l0.5,4l0,4l-0.5,4l-0.2,3.8l0.4,4
				l-0.3,4l0.1,3.8l0.7,5.7L374.7,130.4z M370.8,127.2l4,0.3l2.7-0.1l-0.3-2.9l-0.1-4l0.3-3.9l-0.4-3.9l0.2-4.2l0.5-3.9l0-3.8
				l-0.5-4l0.1-2.4l-2.5,0.2l-4-0.8l-3.9,0.5l-4.2-0.2l-4-0.3l-4,0.2l-4-0.2l-3.9,0.2l-2.8,0l0.1,2.6l0.1,8l0.3,4l-0.5,4.1l-0.2,3.9
				v3.8l0.3,4l0,2.6l2.6,0.1l8-0.1l4.1-0.2l4,0.5L370.8,127.2z"/>
		</g>
	</g>
	<path d="M355.4,111.1l8.8-5.2l0,1.4l-7.4,4.3l0,0l7.7,3.8l0,1.4l-9.2-4.6L355.4,111.1z"/>
</g>
</svg>
